# xmcd CD database file
#
# Track frame offsets:
#        150
#        17852
#        27355
#        43535
#        64015
#        78437
#        90175
#        101362
#        112092
#        127165
#        142447
#        162805
#        173342
#        188530
#        208437
#        222372
#        243535
#        258195
#
# Disc length: 3685 seconds
#
# Revision: 0
# Processed by: cddbd v1.5.2PL0 Copyright (c) Steve Scherf et al.
# Submitted via: CUERipper 2.1.7
#
DISCID=fb0e6312
DTITLE=Amado Batista - Amado Batista Ao Vivo
DYEAR=1998
DGENRE=
TTITLE0=Anjo Bom
TTITLE1=Menininha Meu Amor
TTITLE2=Chance
TTITLE3=Saresteiros da Noite
TTITLE4=Quem É Você
TTITLE5=Eu Sou Seu Fã
TTITLE6=Reclamando Sua Ausência
TTITLE7=Morro de Ciúme Dela
TTITLE8=Não Quero Falar Com Ela
TTITLE9=Onde Está Você
TTITLE10=Princesa
TTITLE11=Meu Ex-amor
TTITLE12=Tum Tum de Saudade
TTITLE13=Pra Que Fugir de Mim
TTITLE14=Vida Cor-de-rosa
TTITLE15=Amar, Amar
TTITLE16=Tem Pena de Mim
TTITLE17=Como Na Primeira Vez
EXTD=
EXTT0=
EXTT1=
EXTT2=
EXTT3=
EXTT4=
EXTT5=
EXTT6=
EXTT7=
EXTT8=
EXTT9=
EXTT10=
EXTT11=
EXTT12=
EXTT13=
EXTT14=
EXTT15=
EXTT16=
EXTT17=
PLAYORDER=
